<?xml version="1.0" encoding="utf-8"?>
<!-- Generator: Adobe Illustrator 15.0.2, SVG Export Plug-In . SVG Version: 6.00 Build 0)  -->
<!DOCTYPE svg PUBLIC "-//W3C//DTD SVG 1.1//EN" "http://www.w3.org/Graphics/SVG/1.1/DTD/svg11.dtd">
<svg version="1.1" id="Capa_1" xmlns="http://www.w3.org/2000/svg" xmlns:xlink="http://www.w3.org/1999/xlink" x="0px" y="0px"
	 width="31.637px" height="31.637px" viewBox="0 0 31.637 31.637" enable-background="new 0 0 31.637 31.637" xml:space="preserve">
<g>
	<g>
		<circle fill="#8C94DC" cx="23.961" cy="7.067" r="0.827"/>
		<path fill="#8C94DC" d="M0.01,15.845c-0.239,5.688,4.03,11.85,9.965,12.192c3.997,0.228,6.318-2.739,6.222-5.269
			c-0.099-2.529-3.421-4.02-5.792-3.218c-2.119,0.718-2.362,2.81-1.244,3.978c0.28,0.291,0.609,0.453,0.943,0.536
			c0.094,0.598,0.604,1.053,1.224,1.053c0.686,0,1.242-0.555,1.242-1.241c0-0.686-0.556-1.242-1.242-1.242
			c-0.347,0-0.658,0.142-0.884,0.371c-0.096-0.094-0.185-0.195-0.262-0.304c-0.583-0.825-0.339-2.043,0.974-2.235
			c1.314-0.197,3.211,0.629,3.634,2.148c0.428,1.536-0.723,4.293-4.168,4.027c-6.325-0.488-8.173-10.226-5.644-11.535
			c0.683-0.353,1.676-0.41,2.87-0.354c0.09,0.004-1.632,1.848-1.945,3.277c-0.216,0.98,0.861,1.754,1.118,1.654
			c0.467-0.18,0.486-1.752,1.119-2.336c0.632-0.582,2.326-0.268,2.529-0.733c0.099-0.229-1.829-0.58-1.729-0.812
			c0.22-0.508,0.428-0.944,0.552-0.933c0.976,0.085,2.029,0.187,3.122,0.236c0.523,0.025,1.062,0.024,1.604,0.007
			c0.081-0.002,0.535,0.988,1.056,2.071c0.173,0.363-0.606,1.267-0.421,1.723c0.369,0.914,1.688,1.314,1.85,0.926
			c0.243-0.585-0.284-1.823-0.098-2.095c0.188-0.269,2.826,0.049,2.726-0.341c-0.055-0.207-2.845-0.791-2.918-1.026
			c-0.209-0.679-0.42-1.358-0.205-1.375c1.167-0.097,2.249-0.22,3.074-0.271c3.779,2.613,8.983,1.503,10.861-1.769
			c-1.978-1.021-3.819-0.761-5.327-0.535c-0.965,0.144-1.798,0.267-2.521,0.063c-0.197-0.057-0.313-0.264-0.257-0.461
			c0.056-0.197,0.263-0.314,0.46-0.258c0.569,0.16,1.33,0.049,2.208-0.082c1.685-0.252,3.759-0.561,6.044,0.74
			c0.442-0.132,0.904-0.339,0.888-1.105c-0.022-1.145-1.751-4.184-1.751-4.184s0-3.26-3.162-2.869
			c-2.967-1.947-5.399,0.826-5.497,1.75c-4.232-2.529-7.431-2.783-11.431-1.771C2.79,6.015,0.216,11.026,0.01,15.845z M22.308,7.305
			c0-1.33,1.078-2.408,2.407-2.408c1.33,0,2.408,1.078,2.408,2.408s-1.078,2.408-2.408,2.408S22.307,8.635,22.308,7.305z"/>
	</g>
</g>
</svg>
